<svg width="60" height="60" viewBox="0 0 60 60" fill="none" xmlns="http://www.w3.org/2000/svg">
<path opacity="0.4" d="M15.4838 28.4912L30.48 8.27965C31.6529 6.69894 33.8512 7.68279 33.8512 9.7884V25.4324C33.8512 26.6937 34.7133 27.7162 35.7767 27.7162H43.0707C44.7276 27.7162 45.6108 30.0335 44.5162 31.5088L29.52 51.7204C28.3471 53.3011 26.1489 52.3172 26.1489 50.2116V34.5676C26.1489 33.3063 25.2867 32.2838 24.2233 32.2838H16.9293C15.2724 32.2838 14.3892 29.9666 15.4838 28.4912Z" fill="white"/>
<path d="M15.4838 28.4912L30.48 8.27965C31.6529 6.69894 33.8511 7.68279 33.8511 9.7884V25.4324C33.8511 26.6937 34.7133 27.7162 35.7767 27.7162H43.0707C44.7276 27.7162 45.6108 30.0335 44.5162 31.5088L29.52 51.7204C28.3472 53.3011 26.1489 52.3172 26.1489 50.2116V34.5676C26.1489 33.3063 25.2867 32.2838 24.2233 32.2838H16.9293C15.2724 32.2838 14.3892 29.9666 15.4838 28.4912Z" stroke="white" stroke-width="2" stroke-linecap="round" stroke-linejoin="round"/>
</svg>
