<svg width="61" height="60" viewBox="0 0 61 60" fill="none" xmlns="http://www.w3.org/2000/svg">
<g opacity="0.5">
<path opacity="0.3" d="M47.1404 14.3327L55.6665 8.75L55.6463 38.7573C51.7022 41.9956 48.9206 43.3241 45.6862 43.6533C41.4419 42.291 37.4744 33.5457 36.0212 29.3434C35.3183 29.2053 34.5886 29.3592 34.0052 29.7684L29.8433 32.6882C27.5347 34.3078 24.3724 34.0507 22.3663 32.0804C20.0233 29.7792 20.1143 26.0215 22.5662 23.8323L28.8593 18.2133C31.0633 16.2453 34.0223 15.3029 36.9828 15.626L40.2407 15.9815C42.6665 16.2462 45.1096 15.6624 47.1404 14.3327Z" fill="#FF0000"/>
<path opacity="0.3" d="M45.6665 43.75C40.2001 40.1057 37.9735 33.7463 36.4497 30.2728C36.224 29.7583 35.6113 29.5585 35.1137 29.8196L30.6665 32.1535C21.503 37.7467 17.4809 26.6231 23.3255 22.7267L30.6665 16.9195C28.6981 15.7104 23.218 13.9566 15.7453 13.7668C14.8755 13.7447 14.0191 13.5229 13.2636 13.0912L5.6665 8.75V38.75C5.6665 38.75 14.4165 51.25 25.6665 51.25C34.6665 51.25 42.7498 47.0833 45.6665 43.75Z" fill="#FF0000"/>
<path d="M55.6665 8.75L47.1404 14.3327C45.1096 15.6624 42.6665 16.2462 40.2407 15.9815L36.9828 15.626C34.0223 15.3029 31.0633 16.2453 28.8593 18.2133L22.5662 23.8323C20.1143 26.0214 20.0233 29.7792 22.3663 32.0804C24.3724 34.0507 27.5347 34.3078 29.8432 32.6882L34.0052 29.7684C34.5886 29.3592 35.3183 29.2053 36.0212 29.3434L36.8549 29.5072C39.7489 30.0756 42.7524 29.4065 45.1134 27.6673L46.5897 26.5799" stroke="#FF0000" stroke-width="2" stroke-linecap="round"/>
<path d="M36.0212 29.3434C37.5696 32.4789 39.6665 39.75 45.6665 43.75C42.7498 47.0833 34.6665 51.25 25.6665 51.25C14.4165 51.25 5.6665 38.75 5.6665 38.75M30.6665 16.9195C28.6981 15.7104 23.218 13.9566 15.7453 13.7668C14.8755 13.7447 14.0191 13.5229 13.2636 13.0912L5.6665 8.75" stroke="#FF0000" stroke-width="2" stroke-linecap="round" stroke-linejoin="round"/>
<path d="M45.6665 43.75C45.6665 43.75 51.9165 42.5 55.6665 38.75" stroke="#FF0000" stroke-width="2" stroke-linecap="round" stroke-linejoin="round"/>
</g>
</svg>
