<svg width="52" height="46" viewBox="0 0 52 46" fill="none" xmlns="http://www.w3.org/2000/svg">
<g opacity="0.4">
<path d="M42.4739 7.33268L51 1.75L50.9797 31.7573C47.0357 34.9956 44.2541 36.3241 41.0196 36.6533C36.7754 35.291 32.8079 26.5457 31.3547 22.3434C30.6518 22.2053 29.922 22.3592 29.3387 22.7684L25.1767 25.6882C22.8682 27.3078 19.7059 27.0507 17.6998 25.0804C15.3568 22.7792 15.4478 19.0215 17.8997 16.8323L24.1928 11.2133C26.3968 9.24535 29.3558 8.30291 32.3163 8.62599L35.5742 8.98152C38 9.24624 40.4431 8.6624 42.4739 7.33268Z" fill="white"/>
<path d="M31.3547 22.3434L32.1884 22.5072C35.0824 23.0756 38.0859 22.4065 40.4469 20.6673L41.9232 19.5799M31.3547 22.3434C30.6518 22.2053 29.922 22.3592 29.3387 22.7684L25.1767 25.6882C22.8682 27.3078 19.7059 27.0507 17.6998 25.0804C15.3568 22.7792 15.4478 19.0214 17.8997 16.8323L24.1928 11.2133C26.3968 9.24535 29.3558 8.30291 32.3163 8.62599L35.5742 8.98152C38 9.24624 40.4431 8.6624 42.4739 7.33268L51 1.75L50.9797 31.7573C47.0357 34.9956 44.2541 36.3241 41.0196 36.6533C36.7754 35.291 32.8079 26.5457 31.3547 22.3434Z" stroke="white" stroke-linecap="round"/>
</g>
<path opacity="0.4" d="M41 36.75C35.5336 33.1057 33.307 26.7463 31.7832 23.2728C31.5574 22.7583 30.9448 22.5585 30.4472 22.8196L26 25.1535C16.8365 30.7467 12.8144 19.6231 18.659 15.7267L26 9.91953C24.0316 8.71043 18.5515 6.95663 11.0788 6.76683C10.209 6.74474 9.35262 6.52292 8.59713 6.09122L1 1.75V31.75C1 31.75 9.75 44.25 21 44.25C30 44.25 38.0833 40.0833 41 36.75Z" fill="white" stroke="white" stroke-linecap="round" stroke-linejoin="round"/>
<path d="M51 1.75L42.4739 7.33268C40.4431 8.6624 38 9.24624 35.5742 8.98152L32.3163 8.62599C29.3558 8.30291 26.3968 9.24535 24.1928 11.2133L17.8997 16.8323C15.4478 19.0214 15.3568 22.7792 17.6998 25.0804C19.7059 27.0507 22.8682 27.3078 25.1767 25.6882L29.3387 22.7684C29.922 22.3592 30.6518 22.2053 31.3547 22.3434L32.1884 22.5072C35.0824 23.0756 38.0859 22.4065 40.4469 20.6673L41.9232 19.5799" stroke="white" stroke-width="2" stroke-linecap="round"/>
<path d="M31.3547 22.3434C32.9031 25.4789 35 32.75 41 36.75C38.0833 40.0833 30 44.25 21 44.25C9.75 44.25 1 31.75 1 31.75M26 9.91953C24.0316 8.71043 18.5515 6.95663 11.0788 6.76683C10.209 6.74474 9.35262 6.52292 8.59713 6.09122L1 1.75" stroke="white" stroke-width="2" stroke-linecap="round" stroke-linejoin="round"/>
<path d="M41 36.75C41 36.75 47.25 35.5 51 31.75" stroke="white" stroke-width="2" stroke-linecap="round" stroke-linejoin="round"/>
</svg>
