<svg width="61" height="60" viewBox="0 0 61 60" fill="none" xmlns="http://www.w3.org/2000/svg">
<g opacity="0.5">
<path opacity="0.3" d="M16.3205 35H10.3335V50.0499L26.3214 54.794C27.6358 55.1841 29.0457 55.0158 30.2407 54.3263L49.0296 43.4854C50.3728 42.7105 50.7482 40.8824 49.8263 39.6057C48.5512 37.8401 46.3509 37.0881 44.3154 37.7223L32.8335 41.25L32.5655 41.3602C31.9324 39.6563 30.2476 38.4378 28.2688 38.4378H25.6622C24.9269 38.4378 24.2016 38.2721 23.5439 37.9539L18.4389 35.4839C17.7812 35.1657 17.0559 35 16.3205 35Z" fill="#FF0000"/>
<path opacity="0.3" d="M21.3225 6.37989C25.0097 4.09527 28.228 5.01595 30.1613 6.48248C30.954 7.08379 31.3503 7.38444 31.5835 7.38444C31.8167 7.38444 32.213 7.08379 33.0057 6.48248C34.939 5.01595 38.1573 4.09527 41.8445 6.37989C46.6837 9.3782 47.7786 19.2697 36.6166 27.6149C34.4906 29.2044 33.4276 29.9991 31.5835 29.9991C29.7394 29.9991 28.6764 29.2044 26.5504 27.6149C15.3884 19.2697 16.4833 9.3782 21.3225 6.37989Z" fill="#FF0000"/>
<path d="M21.3225 6.37989C25.0097 4.09527 28.228 5.01595 30.1613 6.48247C30.954 7.08379 31.3503 7.38444 31.5835 7.38444C31.8167 7.38444 32.213 7.08379 33.0057 6.48247C34.939 5.01595 38.1573 4.09527 41.8445 6.37989C46.6837 9.3782 47.7786 19.2697 36.6166 27.6149C34.4906 29.2044 33.4276 29.9991 31.5835 29.9991C29.7394 29.9991 28.6764 29.2044 26.5503 27.6149C15.3884 19.2697 16.4833 9.3782 21.3225 6.37989Z" stroke="#FF0000" stroke-width="2" stroke-linecap="round"/>
<path d="M10.3335 35H16.3205C17.0559 35 17.7812 35.1657 18.4389 35.4839L23.5439 37.9539C24.2016 38.2721 24.9269 38.4378 25.6622 38.4378H28.2688C30.7898 38.4378 32.8335 40.4155 32.8335 42.855C32.8335 42.9536 32.7659 43.0403 32.668 43.0673L26.3157 44.8236C25.1762 45.1387 23.956 45.0289 22.896 44.5161L17.4388 41.8756" stroke="#FF0000" stroke-width="2" stroke-linecap="round" stroke-linejoin="round"/>
<path d="M32.8335 41.25L44.3154 37.7223C46.3509 37.0881 48.5512 37.8401 49.8263 39.6057C50.7482 40.8824 50.3728 42.7105 49.0296 43.4854L30.2407 54.3263C29.0457 55.0158 27.6358 55.1841 26.3214 54.794L10.3335 50.0499" stroke="#FF0000" stroke-width="2" stroke-linecap="round" stroke-linejoin="round"/>
</g>
</svg>
