<svg width="42" height="52" viewBox="0 0 42 52" fill="none" xmlns="http://www.w3.org/2000/svg">
<path opacity="0.3" d="M6.98705 31.001H1V46.0508L16.9879 50.795C18.3024 51.185 19.7122 51.0168 20.9072 50.3273L39.6962 39.4864C41.0393 38.7114 41.4147 36.8833 40.4928 35.6067C39.2177 33.8411 37.0174 33.0891 34.9819 33.7233L23.5 37.251L23.232 37.3611C22.5989 35.6573 20.9141 34.4388 18.9353 34.4388H16.3287C15.5934 34.4388 14.8681 34.2731 14.2104 33.9549L9.10543 31.4849C8.44769 31.1667 7.72242 31.001 6.98705 31.001Z" fill="white"/>
<path d="M11.989 2.38077C15.6762 0.096151 18.8945 1.01682 20.8278 2.48335C21.6205 3.08466 22.0168 3.38532 22.25 3.38532C22.4832 3.38532 22.8795 3.08466 23.6722 2.48335C25.6055 1.01682 28.8238 0.096151 32.511 2.38077C37.3502 5.37908 38.4451 15.2706 27.2831 23.6158C25.1571 25.2053 24.0941 26 22.25 26C20.4059 26 19.3429 25.2053 17.2169 23.6158C6.05487 15.2706 7.14984 5.37908 11.989 2.38077Z" fill="white" fill-opacity="0.4" stroke="white" stroke-linecap="round"/>
<path opacity="0.4" d="M11.989 2.38077C15.6762 0.096151 18.8945 1.01682 20.8278 2.48335C21.6205 3.08466 22.0168 3.38532 22.25 3.38532C22.4832 3.38532 22.8795 3.08466 23.6722 2.48335C25.6055 1.01682 28.8238 0.096151 32.511 2.38077C37.3502 5.37908 38.4451 15.2706 27.2831 23.6158C25.1571 25.2053 24.0941 26 22.25 26C20.4059 26 19.3429 25.2053 17.2169 23.6158C6.05487 15.2706 7.14984 5.37908 11.989 2.38077Z" stroke="white" stroke-width="2" stroke-linecap="round"/>
<path d="M1 31.001H6.98705C7.72242 31.001 8.44769 31.1667 9.10543 31.4849L14.2104 33.9549C14.8681 34.2731 15.5934 34.4388 16.3287 34.4388H18.9353C21.4563 34.4388 23.5 36.4164 23.5 38.856C23.5 38.9546 23.4324 39.0412 23.3345 39.0683L16.9822 40.8246C15.8427 41.1397 14.6225 41.0299 13.5625 40.5171L8.10526 37.8766" stroke="white" stroke-width="2" stroke-linecap="round" stroke-linejoin="round"/>
<path d="M23.5 37.251L34.9819 33.7233C37.0174 33.0891 39.2177 33.8411 40.4928 35.6067C41.4147 36.8833 41.0393 38.7114 39.6962 39.4864L20.9072 50.3273C19.7122 51.0168 18.3024 51.185 16.9879 50.795L1 46.0508" stroke="white" stroke-width="2" stroke-linecap="round" stroke-linejoin="round"/>
</svg>
