<svg width="39" height="53" viewBox="0 0 39 53" fill="none" xmlns="http://www.w3.org/2000/svg">
<g opacity="0.3" filter="url(#filter0_d_2001_3347)">
<path d="M4.81727 20.9922L19.8135 0.780626C20.9863 -0.800088 23.1846 0.183764 23.1846 2.28938V17.9333C23.1846 19.1947 24.0468 20.2172 25.1102 20.2172H32.4042C34.0611 20.2172 34.9443 22.5344 33.8497 24.0097L18.8535 44.2213C17.6806 45.802 15.4823 44.8182 15.4823 42.7126V27.0686C15.4823 25.8073 14.6202 24.7848 13.5568 24.7848H6.26282C4.60588 24.7848 3.72265 22.4675 4.81727 20.9922Z" fill="#FF0000"/>
<path d="M4.81727 20.9922L19.8135 0.780626C20.9863 -0.800088 23.1846 0.183764 23.1846 2.28938V17.9333C23.1846 19.1947 24.0468 20.2172 25.1102 20.2172H32.4042C34.0611 20.2172 34.9443 22.5344 33.8497 24.0097L18.8535 44.2213C17.6806 45.802 15.4823 44.8182 15.4823 42.7126V27.0686C15.4823 25.8073 14.6202 24.7848 13.5568 24.7848H6.26282C4.60588 24.7848 3.72265 22.4675 4.81727 20.9922Z" stroke="white"/>
</g>
<path opacity="0.3" d="M5.21881 21.2902L20.2151 1.07856C20.6618 0.476384 21.2528 0.393349 21.7346 0.609007C22.2352 0.833019 22.6846 1.41587 22.6846 2.28938V17.9333C22.6846 19.3875 23.6941 20.7172 25.1102 20.7172H32.4042C32.9685 20.7172 33.4518 21.1094 33.6916 21.7383C33.9305 22.3652 33.8802 23.1296 33.4482 23.7118L18.4519 43.9234C18.0051 44.5256 17.4142 44.6086 16.9324 44.3929C16.4318 44.1689 15.9823 43.5861 15.9823 42.7126V27.0686C15.9823 25.6145 14.9729 24.2848 13.5568 24.2848H6.26282C5.69852 24.2848 5.21514 23.8926 4.97542 23.2637C4.73649 22.6368 4.78683 21.8724 5.21881 21.2902Z" stroke="#FF0000" stroke-linecap="round" stroke-linejoin="round"/>
<defs>
<filter id="filter0_d_2001_3347" x="0.333496" y="0.000976562" width="38" height="53" filterUnits="userSpaceOnUse" color-interpolation-filters="sRGB">
<feFlood flood-opacity="0" result="BackgroundImageFix"/>
<feColorMatrix in="SourceAlpha" type="matrix" values="0 0 0 0 0 0 0 0 0 0 0 0 0 0 0 0 0 0 127 0" result="hardAlpha"/>
<feOffset dy="4"/>
<feGaussianBlur stdDeviation="2"/>
<feComposite in2="hardAlpha" operator="out"/>
<feColorMatrix type="matrix" values="0 0 0 0 0 0 0 0 0 0 0 0 0 0 0 0 0 0 0.25 0"/>
<feBlend mode="normal" in2="BackgroundImageFix" result="effect1_dropShadow_2001_3347"/>
<feBlend mode="normal" in="SourceGraphic" in2="effect1_dropShadow_2001_3347" result="shape"/>
</filter>
</defs>
</svg>
