<svg width="20" height="22" viewBox="0 0 20 22" fill="none" xmlns="http://www.w3.org/2000/svg">
<path d="M18.7188 13.5312L10.4688 21.3125C10.3281 21.4531 10.1406 21.5 10 21.5C9.8125 21.5 9.625 21.4531 9.48438 21.3125L1.23438 13.5312C0.90625 13.25 0.90625 12.7812 1.1875 12.4531C1.46875 12.125 1.9375 12.125 2.21875 12.4062L9.25 18.9688V1.29688C9.25 0.875 9.57812 0.5 9.95312 0.5C10.3281 0.5 10.75 0.875 10.75 1.29688V18.9688L17.7344 12.4062C18.0156 12.125 18.4844 12.125 18.7656 12.4531C19.0469 12.7812 19.0469 13.25 18.7188 13.5312Z" fill="#368CCC"/>
</svg>
